<?xml version="1.0" encoding="UTF-8"?>
<svg id="Capa_1" data-name="Capa 1" xmlns="http://www.w3.org/2000/svg" xmlns:xlink="http://www.w3.org/1999/xlink" viewBox="0 0 1080 396.28">
  <defs>
    <style>
      .cls-1 {
        fill: #eff1f4;
        stroke-width: 0px;
      }

      .cls-2 {
        filter: url(#drop-shadow-6);
      }
    </style>
    <filter id="drop-shadow-6" filterUnits="userSpaceOnUse">
      <feOffset dx="2" dy="2"/>
      <feGaussianBlur result="blur" stdDeviation="3"/>
      <feFlood flood-color="#282828" flood-opacity=".75"/>
      <feComposite in2="blur" operator="in"/>
      <feComposite in="SourceGraphic"/>
    </filter>
  </defs>
  <g class="cls-2">
    <path class="cls-1" d="M440.65,362.23c4.18-.69,6.69-4.96,5.37-8.98-19.12-58.03-80.46-71.28-102.46-74.19-6.91-.91-13.73-2.44-20.28-4.81-41.42-14.99-42.3-32.09-42.3-32.09-3.39-2.87-7.9-58.56.93-72.18,5.81-8.96,15.93-14.19,26.61-14.19h57.7c2.91,0,5.82.32,8.61,1.14,27.84,8.13,20.26,47.8,17.75,54.09-5.3,13.26-15.27,18.21-24.7,18.87-12.1.85-21.95,0-28.27-.9-5.01-.72-8.98-4.65-9.64-9.66-.29-2.23-.29-4.1-.23-6.49.09-4.28,3.51-7.75,7.79-7.92l22.65-.91c6.64-.27,11.89-5.73,11.89-12.38v-7.02c0-4.25-3.45-7.7-7.7-7.7h-38.49s-22.35.52-23.22,22.09c-.87,21.57-.35,32.18-.35,32.18,0,0,4.7,26.09,34.79,24.88l32.01.52s26.21,1.53,43.31-14.54c7.51-7.05,14.36-16.99,14.44-27.29l.24-32.05c.06-8.03-2.83-20.48-6.47-27.63-4.42-8.69-9.93-16-21.28-22.71-6.53-3.86-18.19-6.84-25.78-6.84h-72.23s-51.93,5.22-57.15,59.23l.56,41.39c.34,25.04,13.17,49.49,33.36,64.29,2.59,1.9,4.7,5.74,42.02,16.41,8.48,2.43,42.95,7.26,51.06,10.73,10.78,4.61,24.62,12.91,36.6,27.66,0,0,3.36,4.48,7.62,11.6,3.14,5.25,9.2,8.04,15.24,7.05l10-1.65Z"/>
    <path class="cls-1" d="M519.53,242.45c-.6.02-22.65,2.36-30.49,2.36-9.54,0-18.94-.81-26.59-3.79-7.73-3.01-12.1-7.85-16.07-14.94-3.98-7.08-5.27-23.78-5.27-33.18v-40.56c0-9.83,4.83-9.73,15.25-9.73s20.32-1.76,20.32,8.07l-.79,23.84c0,6.8-.46,23.25,3.09,29.46,2.35,4.12,5.17,6.1,10.52,6.1s8.66-1.98,10.66-6.28c2.59-5.58.45-52.46.45-52.46,0-9.83,1.06-10.35,11.47-10.35s20.72-.44,20.72,9.4l4.01,50.43,2.6,22.05s1.87,11.56-5.3,15.93h0c-4.54,2.25-14.58,3.64-14.58,3.64Z"/>
    <path class="cls-1" d="M783.29,245.96c-8.4,0-15.87.03-15.87-7.91v-73.87c0-2.87-.57-5.71-1.69-8.35-10.24-24.18-12.1-30.94-4.43-30.95,0,0,18.57-1.39,24.22,4.47.33.34,3.41,4.03,3.88,9.83.18,2.24-1.4,1.76,0,0,5.44-6.84,13.2-10.56,31.01-12.51,14.45-1.58,15.19,21.61,15.19,30.36,0,3.27,1.69,12.98-4.37,13-7.16.03-9.46-8.52-17.84-9.71-14.06-2-19.59,6.74-20.77,18.14-.69,6.62.26,20.7.93,25.98l4.05,31.96c.11.87.23,1.75.44,2.61,2.09,8.88-6.57,6.93-14.74,6.93Z"/>
    <path class="cls-1" d="M609.94,238l-36.88.86c-15.49-.08-18.23-2.53-19.3-7.84-.11-.55-.2-4.96-.23-5.76l-3.75-76.58c-.18-2.96,2.17-5.46,5.14-5.46h10.51c2.53,0,4.69,1.83,5.09,4.34,2.42,15.21,17.98,68.61,40.52,87.08,1.36,1.11.66,3.3-1.1,3.37Z"/>
    <path class="cls-1" d="M597.17,92.2c7.72,49.81,24.21,83.76,30.43,91.46,8.06,9.98,9.94,2.28,11.78-1.19,31.24-59.02,30.71-56.58,35.45-57.17,19.58-2.44,54.19-.83,63.64.49,2,.28,5.75,2.23,5.71,4.25-.08,4.15-.69,7.38-1.3,9.63-.53,1.95-4.89,3.46-6.9,3.4-47.21-1.41-45.53-4.97-59.84,26.47-5.49,12.05-20.54,49.56-37.07,68.04-1.69,1.89-5.14,2.13-6.78.19-47.52-56.15-54.17-131.04-54.77-147.71-.08-2.17,1.56-4.01,3.73-4.21,5.43-.51,14.89-.4,15.93,6.35Z"/>
    <path class="cls-1" d="M655.78,112.99c-1.4-.45-2.77-.89-4.1-1.36-1.86-.66-3.91.14-4.86,1.87-2.16,3.92-5.08,9.39-9.11,17.01-.87,1.65-1.77,5.31-5.6.57-1.98-2.45-6.14-10.47-9.77-22.6-.73-2.42-3.01-4.08-5.53-3.9-1.43.1-2.87.13-4.31.07,0,0-.02,0-.02,0-.96-.04-1.73.77-1.53,1.71,3.08,14.61,9.63,34.18,23.4,50.45.81.96,2.26.98,3.11.04,7.91-8.74,15.13-26.73,17.75-32.49,1.1-2.42,2-4.4,2.84-6.02,1.07-2.08.05-4.62-2.18-5.33l-.06-.02Z"/>
    <path class="cls-1" d="M696.74,165.11c-2.17,4.45-9.19,18.79-12.06,24.66-.63,1.28.24,2.78,1.66,2.9,6.91.56,25.63.4,50.33-13.18,2.5-1.38,2.4-5.01-.18-6.25-6.95-3.32-20.01-8.3-37.61-9.38-.9-.06-1.75.44-2.15,1.25Z"/>
    <path class="cls-1" d="M681.93,210.84c6.68,3.04,17.32,6.26,32.46,5.78,3.4-.11,15.68.9,29.32-7.78.76-.49,3.93-.96,4.49-.25,2.46,3.04,4.63,18.46,3.97,31.84-.13,2.54-2.41,4.46-4.91,4.95-12.15,2.39-54.33,8.88-89.96-3.23-2.85-.97-3.52-4.71-1.17-6.59,4.75-3.78,13.55-13.74,17.02-21.39,1.52-3.33,5.44-4.86,8.77-3.34Z"/>
    <path class="cls-1" d="M563.05,133.02h0c-9.65,1.41-18.47-4.26-19.7-12.65h0c-.13-.9-.14-1.81-.02-2.71.73-5.42,3.56-7.97,8.68-8.72,0,0,11.07-2.9,12.47,2.61,0,0,.89,9.51,1.87,13.73l.71,3.06c.32,2.21-1.48,4.3-4.02,4.68Z"/>
  </g>
</svg>