<?xml version="1.0" encoding="UTF-8"?>
<svg id="Capa_1" data-name="Capa 1" xmlns="http://www.w3.org/2000/svg" viewBox="0 0 60 50">
  <defs>
    <style>
      .cls-1 {
        fill: #734223;
        stroke-width: 0px;
      }
    </style>
  </defs>
  <path class="cls-1" d="M20.8,38.43c.39-.06.62-.46.5-.83-1.77-5.37-7.45-6.6-9.48-6.87-.64-.08-1.27-.23-1.88-.45-3.83-1.39-3.92-2.97-3.92-2.97-.31-.27-.73-5.42.09-6.68.54-.83,1.47-1.31,2.46-1.31h5.34c.27,0,.54.03.8.11,2.58.75,1.88,4.42,1.64,5.01-.49,1.23-1.41,1.69-2.29,1.75-1.12.08-2.03,0-2.62-.08-.46-.07-.83-.43-.89-.89-.03-.21-.03-.38-.02-.6,0-.4.32-.72.72-.73l2.1-.08c.61-.02,1.1-.53,1.1-1.15v-.65c0-.39-.32-.71-.71-.71h-3.56s-2.07.05-2.15,2.05-.03,2.98-.03,2.98c0,0,.43,2.42,3.22,2.3l2.96.05s2.43.14,4.01-1.35c.69-.65,1.33-1.57,1.34-2.53l.02-2.97c0-.74-.26-1.9-.6-2.56-.41-.8-.92-1.48-1.97-2.1-.6-.36-1.68-.63-2.39-.63h-6.69s-4.81.48-5.29,5.48l.05,3.83c.03,2.32,1.22,4.58,3.09,5.95.24.18.43.53,3.89,1.52.79.22,3.98.67,4.73.99,1,.43,2.28,1.19,3.39,2.56,0,0,.31.41.71,1.07.29.49.85.74,1.41.65l.93-.15Z"/>
  <path class="cls-1" d="M28.11,27.35c-.06,0-2.1.22-2.82.22-.88,0-1.75-.08-2.46-.35s-1.12-.73-1.49-1.38c-.37-.66-.49-2.2-.49-3.07v-3.75c0-.91.45-.9,1.41-.9s1.88-.16,1.88.75l-.07,2.21c0,.63-.04,2.15.29,2.73.22.38.48.56.97.56s.8-.18.99-.58c.24-.52.04-4.86.04-4.86,0-.91.1-.96,1.06-.96s1.92-.04,1.92.87l.37,4.67.24,2.04s.17,1.07-.49,1.47h0c-.42.21-1.35.34-1.35.34Z"/>
  <path class="cls-1" d="M52.52,27.67c-.78,0-1.47,0-1.47-.73v-6.84c0-.27-.05-.53-.16-.77-.95-2.24-1.12-2.86-.41-2.86,0,0,1.72-.13,2.24.41.03.03.32.37.36.91.02.21-.13.16,0,0,.5-.63,1.22-.98,2.87-1.16,1.34-.15,1.41,2,1.41,2.81,0,.3.16,1.2-.4,1.2-.66,0-.88-.79-1.65-.9-1.3-.19-1.81.62-1.92,1.68-.06.61.02,1.92.09,2.4l.37,2.96c.01.08.02.16.04.24.19.82-.61.64-1.36.64Z"/>
  <path class="cls-1" d="M36.47,26.93l-3.41.08c-1.43,0-1.69-.23-1.79-.73-.01-.05-.02-.46-.02-.53l-.35-7.09c-.02-.27.2-.51.48-.51h.97c.23,0,.43.17.47.4.22,1.41,1.66,6.35,3.75,8.06.13.1.06.31-.1.31Z"/>
  <path class="cls-1" d="M35.29,13.44c.71,4.61,2.24,7.75,2.82,8.47.75.92.92.21,1.09-.11,2.89-5.46,2.84-5.24,3.28-5.29,1.81-.23,5.02-.08,5.89.05.19.03.53.21.53.39,0,.38-.06.68-.12.89-.05.18-.45.32-.64.32-4.37-.13-4.21-.46-5.54,2.45-.51,1.12-1.9,4.59-3.43,6.3-.16.18-.48.2-.63.02-4.4-5.2-5.01-12.13-5.07-13.67,0-.2.14-.37.35-.39.5-.05,1.38-.04,1.47.59Z"/>
  <path class="cls-1" d="M40.72,15.36c-.13-.04-.26-.08-.38-.13-.17-.06-.36.01-.45.17-.2.36-.47.87-.84,1.57-.08.15-.16.49-.52.05-.18-.23-.57-.97-.9-2.09-.07-.22-.28-.38-.51-.36-.13,0-.27.01-.4,0,0,0,0,0,0,0-.09,0-.16.07-.14.16.29,1.35.89,3.16,2.17,4.67.08.09.21.09.29,0,.73-.81,1.4-2.47,1.64-3.01.1-.22.19-.41.26-.56.1-.19,0-.43-.2-.49h0Z"/>
  <path class="cls-1" d="M44.51,20.19c-.2.41-.85,1.74-1.12,2.28-.06.12.02.26.15.27.64.05,2.37.04,4.66-1.22.23-.13.22-.46-.02-.58-.64-.31-1.85-.77-3.48-.87-.08,0-.16.04-.2.12Z"/>
  <path class="cls-1" d="M43.14,24.42c.62.28,1.6.58,3,.54.31,0,1.45.08,2.71-.72.07-.04.36-.09.42-.02.23.28.43,1.71.37,2.95-.01.24-.22.41-.45.46-1.12.22-5.03.82-8.33-.3-.26-.09-.33-.44-.11-.61.44-.35,1.25-1.27,1.58-1.98.14-.31.5-.45.81-.31Z"/>
  <path class="cls-1" d="M32.13,17.22h0c-.89.13-1.71-.39-1.82-1.17h0c-.01-.08-.01-.17,0-.25.07-.5.33-.74.8-.81,0,0,1.03-.27,1.15.24,0,0,.08.88.17,1.27l.07.28c.03.2-.14.4-.37.43Z"/>
</svg>